# xmcd CD database file
# Copyright (C) 1996 Ti Kan
#
# Track frame offsets:
#  187
#  8947
#  20167
#  52980
#  63432
#  85090
#  97467
#  121317
#  133825
#  145805
#
# Disc length: 2225 seconds
#
# Revision: 2
# Processed by: cddbd v1.4PL0 Copyright (c) Steve Scherf et al.
# Submitted via: Gronk 1.4
#
DISCID=8e08af0a
DTITLE=Hubert Sumlin - Hubert Sumlin's Blues Party
DYEAR=1900
DGENRE=blues
TTITLE0=Hidden Charms
TTITLE1=West Side Soul
TTITLE2=A Soul That's Been Abused
TTITLE3=Letter To My Girlfriend
TTITLE4=How Can You Leave Me, Little Girl?
TTITLE5=Can't Call You No More
TTITLE6=Blue Guitar
TTITLE7=Down In The Bottom
TTITLE8=Poor Me, Pour Me
TTITLE9=Living The Blues
EXTD=Black Top CD BT-1036\n\nHubert Sumlin:  guitar, vocals (tracks 5 and 1
EXTD=0]\nMighty Sam McClain:  vocals (tracks 1, 3, 6, 8]\nMichael "Mudcat
EXTD=" Ward:  bass\nRonnie Earl:  guitar and slide guitar\nRon Levy:  pia
EXTD=no, organ, vocals (track 9]\nGreg Piccolo:  tenor saxophone, vocals 
EXTD=(track 4]\nJerry Portnoy:  harmonica\nJohn Rossi:  drums\nDave Maxwe
EXTD=ll:  piano (tracks 6 - 8]\nDoug James:  baritone saxophone\nBob Enos
EXTD=:  trumpet\n\nSubmitted 6/20/97\n[Jmccoy@efn.org]
EXTT0=
EXTT1=
EXTT2=
EXTT3=
EXTT4=
EXTT5=
EXTT6=
EXTT7=
EXTT8=
EXTT9=
PLAYORDER=
